<svg xmlns="http://www.w3.org/2000/svg" viewBox="0 0 1200 1200" role="img" aria-labelledby="title desc">
  <title id="title">Wedding Mandala Watermark</title>
  <desc id="desc">Islamic floral mandala with interlocking rings, heart, and crescent ornaments in champagne gold.</desc>

  <defs>
    <style>
      .line {
        fill: none;
        stroke: #c6ab85;
        stroke-linecap: round;
        stroke-linejoin: round;
      }
    </style>
  </defs>

  <g class="line" stroke-width="2.2">
    <circle cx="600" cy="600" r="360" />
    <circle cx="600" cy="600" r="305" stroke-opacity="0.85" />
  </g>

  <g class="line" stroke-width="2" stroke-opacity="0.82">
    <path d="M600 240 C630 300 690 330 760 340 C700 370 670 430 660 500 C630 450 585 420 530 410 C575 380 600 325 600 240 Z" />
    <path d="M960 600 C900 630 870 690 860 760 C830 700 770 670 700 660 C750 630 780 585 790 530 C820 575 880 600 960 600 Z" />
    <path d="M600 960 C570 900 510 870 440 860 C500 830 530 770 540 700 C570 750 615 780 670 790 C625 820 600 875 600 960 Z" />
    <path d="M240 600 C300 570 330 510 340 440 C370 500 430 530 500 540 C450 570 420 615 410 670 C380 625 320 600 240 600 Z" />
  </g>

  <g class="line" stroke-width="1.7" stroke-opacity="0.74">
    <path d="M600 305 C620 355 660 380 705 388 C666 410 646 450 640 500 C619 465 587 445 548 438 C580 417 599 379 600 305 Z" />
    <path d="M895 600 C845 620 820 660 812 705 C790 666 750 646 700 640 C735 619 755 587 762 548 C783 580 822 599 895 600 Z" />
    <path d="M600 895 C580 845 540 820 495 812 C534 790 554 750 560 700 C581 735 613 755 652 762 C620 783 601 821 600 895 Z" />
    <path d="M305 600 C355 580 380 540 388 495 C410 534 450 554 500 560 C465 581 445 613 438 652 C417 620 378 601 305 600 Z" />
  </g>

  <g class="line" stroke-width="2.1" stroke-opacity="0.78">
    <path d="M600 172 C630 220 675 255 735 270 C675 285 630 320 600 368 C570 320 525 285 465 270 C525 255 570 220 600 172 Z" />
    <path d="M1028 600 C980 630 945 675 930 735 C915 675 880 630 832 600 C880 570 915 525 930 465 C945 525 980 570 1028 600 Z" />
    <path d="M600 1028 C570 980 525 945 465 930 C525 915 570 880 600 832 C630 880 675 915 735 930 C675 945 630 980 600 1028 Z" />
    <path d="M172 600 C220 570 255 525 270 465 C285 525 320 570 368 600 C320 630 285 675 270 735 C255 675 220 630 172 600 Z" />
  </g>

  <g class="line" stroke-width="2.4" stroke-opacity="0.9">
    <circle cx="545" cy="610" r="82" />
    <circle cx="655" cy="610" r="82" />
  </g>

  <path class="line" stroke-width="2.2" stroke-opacity="0.88" d="M600 710 C574 691 548 668 548 636 C548 610 567 591 592 591 C609 591 624 600 633 614 C642 600 657 591 674 591 C699 591 718 610 718 636 C718 668 692 691 666 710 L633 736 Z" />

  <g class="line" stroke-width="2" stroke-opacity="0.8">
    <path d="M600 188 C616 188 628 176 628 160 C628 176 640 188 656 188 C640 188 628 200 628 216 C628 200 616 188 600 188 Z" />
    <path d="M1012 600 C1012 616 1024 628 1040 628 C1024 628 1012 640 1012 656 C1012 640 1000 628 984 628 C1000 628 1012 616 1012 600 Z" />
    <path d="M600 1012 C584 1012 572 1024 572 1040 C572 1024 560 1012 544 1012 C560 1012 572 1000 572 984 C572 1000 584 1012 600 1012 Z" />
    <path d="M188 600 C188 584 176 572 160 572 C176 572 188 560 188 544 C188 560 200 572 216 572 C200 572 188 584 188 600 Z" />
  </g>

  <g class="line" stroke-width="1.8" stroke-opacity="0.7">
    <path d="M600 260 A88 88 0 0 1 688 348 A58 58 0 0 1 600 260 Z" />
    <path d="M940 600 A88 88 0 0 1 852 688 A58 58 0 0 1 940 600 Z" />
    <path d="M600 940 A88 88 0 0 1 512 852 A58 58 0 0 1 600 940 Z" />
    <path d="M260 600 A88 88 0 0 1 348 512 A58 58 0 0 1 260 600 Z" />
  </g>
</svg>
